<svg width="35" height="37" viewBox="0 0 35 37" fill="none" xmlns="http://www.w3.org/2000/svg">
<g filter="url(#filter0_d_1_361)">
<path d="M29.2497 3.75L21.1247 26.25C21.0699 26.3697 20.9818 26.4711 20.871 26.5422C20.7602 26.6133 20.6314 26.6511 20.4997 26.6511C20.3681 26.6511 20.2392 26.6133 20.1284 26.5422C20.0176 26.4711 19.9296 26.3697 19.8747 26.25L15.4997 17.5L6.74972 13.125C6.63004 13.0702 6.52863 12.9821 6.45753 12.8713C6.38643 12.7605 6.34863 12.6316 6.34863 12.5C6.34863 12.3684 6.38643 12.2395 6.45753 12.1287C6.52863 12.0179 6.63004 11.9298 6.74972 11.875L29.2497 3.75Z" stroke="#E21F4D" stroke-width="2.875" stroke-linecap="round" stroke-linejoin="round"/>
</g>
<defs>
</defs>
</svg>
