<svg width="18" height="21" viewBox="0 0 18 21" fill="none" xmlns="http://www.w3.org/2000/svg">
<g filter="url(#filter0_d_1_633)">
<path fill-rule="evenodd" clip-rule="evenodd" d="M9.12023 4.34001C8.36378 4.34027 7.62776 4.58559 7.02244 5.03924C6.41711 5.49289 5.97504 6.13045 5.76246 6.85642C5.54987 7.58238 5.57821 8.35769 5.84323 9.0662C6.10824 9.77471 6.59567 10.3783 7.2325 10.7865C7.86933 11.1948 8.62128 11.3857 9.37574 11.3308C10.1302 11.2758 10.8465 10.9779 11.4175 10.4816C11.9884 9.98539 12.3832 9.31753 12.5427 8.57808C12.7022 7.83864 12.6179 7.06742 12.3023 6.37993C12.2675 6.29624 12.2666 6.20233 12.2997 6.11795C12.3327 6.03357 12.3972 5.96531 12.4796 5.92753C12.562 5.88974 12.6558 5.88538 12.7413 5.91536C12.8268 5.94534 12.8974 6.00732 12.9381 6.08826C13.3168 6.9133 13.4179 7.83879 13.2264 8.72612C13.0348 9.61344 12.561 10.4148 11.8758 11.0103C11.1906 11.6057 10.3309 11.9631 9.42558 12.0289C8.52021 12.0948 7.61788 11.8656 6.85373 11.3755C6.08959 10.8855 5.50477 10.1611 5.18687 9.31086C4.86897 8.46059 4.8351 7.53021 5.09034 6.65907C5.34559 5.78793 5.87619 5.02294 6.60269 4.47867C7.32919 3.9344 8.21247 3.64016 9.12023 3.64001V4.34001Z" fill="#E21F4D"/>
<path d="M9.12012 5.36617V2.61342C9.12017 2.58019 9.12969 2.54766 9.14756 2.51964C9.16542 2.49162 9.1909 2.46926 9.22101 2.45519C9.25111 2.44111 9.2846 2.4359 9.31756 2.44017C9.35052 2.44443 9.38158 2.45799 9.40712 2.47926L11.0591 3.85476C11.0788 3.87118 11.0947 3.89174 11.1056 3.91497C11.1165 3.93821 11.1221 3.96355 11.1221 3.98921C11.1221 4.01487 11.1165 4.04022 11.1056 4.06345C11.0947 4.08669 11.0788 4.10725 11.0591 4.12367L9.40712 5.50034C9.38154 5.52164 9.35043 5.53521 9.31742 5.53945C9.2844 5.54369 9.25087 5.53843 9.22074 5.52428C9.19062 5.51014 9.16515 5.48769 9.14732 5.45959C9.1295 5.43148 9.12006 5.39887 9.12012 5.36559V5.36617Z" fill="#E21F4D"/>
</g>
<defs>
</defs>
</svg>
