<svg width="34" height="36" viewBox="0 0 34 36" fill="none" xmlns="http://www.w3.org/2000/svg">
<g filter="url(#filter0_d_1_351)">
<path d="M5.75 26.2487L7.8125 21.4987C6.23458 19.2588 5.52833 16.52 5.82631 13.7963C6.12428 11.0727 7.40598 8.55135 9.43088 6.70558C11.4558 4.85981 14.0847 3.81645 16.8242 3.7713C19.5638 3.72616 22.2256 4.68234 24.3102 6.4604C26.3948 8.23845 27.7589 10.7162 28.1465 13.4285C28.534 16.1409 27.9184 18.9014 26.4151 21.1921C24.9119 23.4828 22.6243 25.1462 19.9817 25.8701C17.3392 26.5939 14.5233 26.3285 12.0625 25.1237L5.75 26.2487" stroke="#E21F4D" stroke-width="2.875" stroke-linecap="round" stroke-linejoin="round"/>
<path d="M13.25 12.5C13.25 14.1576 13.9085 15.7473 15.0806 16.9194C16.2527 18.0915 17.8424 18.75 19.5 18.75H20.75C20.9158 18.75 21.0747 18.6842 21.1919 18.5669C21.3092 18.4497 21.375 18.2908 21.375 18.125C21.375 17.9592 21.3092 17.8003 21.1919 17.6831C21.0747 17.5658 20.9158 17.5 20.75 17.5H19.5C19.3342 17.5 19.1753 17.5658 19.0581 17.6831C18.9408 17.8003 18.875 17.9592 18.875 18.125C18.875 18.2908 18.9408 18.4497 19.0581 18.5669C19.1753 18.6842 19.3342 18.75 19.5 18.75M13.25 12.5C13.25 12.6658 13.3158 12.8247 13.4331 12.9419C13.5503 13.0592 13.7092 13.125 13.875 13.125C14.0408 13.125 14.1997 13.0592 14.3169 12.9419C14.4342 12.8247 14.5 12.6658 14.5 12.5V11.25C14.5 11.0842 14.4342 10.9253 14.3169 10.8081C14.1997 10.6908 14.0408 10.625 13.875 10.625C13.7092 10.625 13.5503 10.6908 13.4331 10.8081C13.3158 10.9253 13.25 11.0842 13.25 11.25V12.5Z" stroke="#E21F4D" stroke-width="2.875" stroke-linecap="round" stroke-linejoin="round"/>
</g>
<defs>
</defs>
</svg>
